<svg width="35" height="35" viewBox="0 0 35 35" fill="none" xmlns="http://www.w3.org/2000/svg">
<path d="M23 17.4043C23 17.7095 22.8901 17.9902 22.6582 18.21L12.978 27.6826C12.7705 27.8901 12.502 28 12.1846 28C11.5498 28 11.0615 27.5239 11.0615 26.8892C11.0615 26.584 11.1958 26.3032 11.3911 26.0957L20.2778 17.4043L11.3911 8.71289C11.1958 8.50537 11.0615 8.23682 11.0615 7.91943C11.0615 7.28467 11.5498 6.80859 12.1846 6.80859C12.502 6.80859 12.7705 6.91846 12.978 7.13818L22.6582 16.5986C22.8901 16.8306 23 17.0991 23 17.4043Z" fill="#549E83"/>
</svg>
