<svg width="35" height="35" viewBox="0 0 35 35" fill="none" xmlns="http://www.w3.org/2000/svg">
<path d="M12 17.5957C12 17.2905 12.1099 17.0098 12.3418 16.79L22.022 7.31738C22.2295 7.10986 22.498 7 22.8154 7C23.4502 7 23.9385 7.47607 23.9385 8.11084C23.9385 8.41602 23.8042 8.69678 23.6089 8.9043L14.7222 17.5957L23.6089 26.2871C23.8042 26.4946 23.9385 26.7632 23.9385 27.0806C23.9385 27.7153 23.4502 28.1914 22.8154 28.1914C22.498 28.1914 22.2295 28.0815 22.022 27.8618L12.3418 18.4014C12.1099 18.1694 12 17.9009 12 17.5957Z" fill="#549E83"/>
</svg>
