<svg width="20" height="20" viewBox="0 0 20 20" fill="none" xmlns="http://www.w3.org/2000/svg">
<path d="M10.0212 14.9609C7.30143 14.9609 5.04069 12.7002 5.04069 9.98047C5.04069 7.25586 7.29655 5 10.0163 5C12.7409 5 15.0016 7.25586 15.0016 9.98047C15.0016 12.7002 12.7458 14.9609 10.0212 14.9609ZM10.0212 14.1309C12.3258 14.1309 14.1715 12.2852 14.1715 9.98047C14.1715 7.67578 12.321 5.83008 10.0163 5.83008C7.71159 5.83008 5.87565 7.67578 5.87565 9.98047C5.87565 12.2852 7.71647 14.1309 10.0212 14.1309ZM7.46745 10.5078C7.27214 10.5078 7.12565 10.3613 7.12565 10.166C7.12565 9.97559 7.27214 9.8291 7.46745 9.8291H9.67936V6.875C9.67936 6.68457 9.82585 6.53809 10.0163 6.53809C10.2067 6.53809 10.3581 6.68457 10.3581 6.875V10.166C10.3581 10.3613 10.2067 10.5078 10.0163 10.5078H7.46745Z" fill="#5D5D5D"/>
</svg>
