<svg width="18" height="19" viewBox="0 0 18 19" fill="none" xmlns="http://www.w3.org/2000/svg">
<path d="M6.6343 14.5C5.88533 14.5 5.39979 14.0456 5.36364 13.3392L5.00207 6.15245H4.3874C4.18079 6.15245 4 5.98451 4 5.77705C4 5.57454 4.18079 5.4066 4.3874 5.4066H6.73244V4.65088C6.73244 3.93467 7.21798 3.5 8.01343 3.5H9.97624C10.7717 3.5 11.2572 3.93467 11.2572 4.65088V5.4066H13.6178C13.8295 5.4066 14 5.57454 14 5.77705C14 5.97957 13.8295 6.15245 13.6178 6.15245H12.9979L12.6415 13.3343C12.6054 14.0406 12.1095 14.5 11.3709 14.5H6.6343ZM7.55372 4.70027V5.4066H10.436V4.70027C10.436 4.41872 10.2293 4.23597 9.91942 4.23597H8.07025C7.76033 4.23597 7.55372 4.41872 7.55372 4.70027ZM6.70661 13.7542H11.2882C11.593 13.7542 11.8151 13.5467 11.8254 13.2503L12.1663 6.15245H5.81302L6.17459 13.2503C6.19008 13.5418 6.41219 13.7542 6.70661 13.7542ZM7.47107 12.9095C7.27996 12.9095 7.15083 12.7959 7.14566 12.6181L6.9907 7.3379C6.98554 7.16502 7.11467 7.04648 7.31095 7.04648C7.4969 7.04648 7.62603 7.16008 7.6312 7.33296L7.79132 12.6181C7.79649 12.791 7.66736 12.9095 7.47107 12.9095ZM9 12.9095C8.80372 12.9095 8.66942 12.791 8.66942 12.6181V7.3379C8.66942 7.16502 8.80372 7.04648 9 7.04648C9.19628 7.04648 9.33574 7.16502 9.33574 7.3379V12.6181C9.33574 12.791 9.19628 12.9095 9 12.9095ZM10.5341 12.9095C10.3378 12.9095 10.2087 12.791 10.2138 12.6181L10.3688 7.3379C10.374 7.16008 10.5031 7.04648 10.689 7.04648C10.8853 7.04648 11.0145 7.16502 11.0093 7.3379L10.8543 12.6181C10.8492 12.7959 10.72 12.9095 10.5341 12.9095Z" fill="#343434"/>
</svg>
